:FULLY-SPECIFIED
:FORCE-ALL-JOINTS-BE-3DOF
:DEGREES
1053
root 1.22123 15.1651 32.5839 4.79996 -3.20191 3.24442
lfemur 8.36394 0.27672 5.73411
ltibia 0.834293 -0 0
lfoot -30.7829 -10.7898 0.000477447
ltoes -34.4592 0 0
rfemur -30.7438 -15.7302 -6.13879
rtibia 49.8064 -0 0
rfoot -21.9119 5.2893 0.000166391
rtoes -41.3247 0 0
lowerback -1.77451 -0.0185971 -0.246975
upperback -0.470344 0.0115633 -5.95322
thorax 0.514699 0.00471189 -6.02916
lowerneck -7.19521 0.728928 6.48181
upperneck 1.54969 0.261359 3.7106
head 1.71303 0.269401 0.0797127
lclavicle 1.01356e-14 -1.8525e-14 4.23912e-31
lhumerus -58.5989 -46.9284 115.467
lradius 55.8652 -0 0
lwrist 25.4583 0 0
lhand 37.4419 25.3248 1.87694e-05
lfingers 7.12502 -0 0
lthumb 60.2428 38.8472 -7.36032e-05
rclavicle 1.01356e-14 -1.8525e-14 4.23912e-31
rhumerus 2.08853 -23.2701 0.591949
rradius 27.4651 -0 0
rwrist -9.41528 0 0
rhand -30.5265 -41.8595 -0.00356085
rfingers 7.12502 -0 0
rthumb -3.82592 -71.8048 -0.00341669
1054
root 1.22338 15.1653 32.5884 4.80589 -3.20917 3.2409
lfemur 8.36005 0.28691 5.72299
ltibia 0.872571 -0 0
lfoot -30.811 -10.7886 0.000501201
ltoes -34.4541 0 0
rfemur -30.7285 -15.7145 -6.14815
rtibia 49.7957 -0 0
rfoot -21.9022 5.30155 0.000151513
rtoes -41.2851 0 0
lowerback -1.78872 -0.0184082 -0.259926
upperback -0.47035 0.0125585 -5.9509
thorax 0.522777 0.005302 -6.01928
lowerneck -7.1884 0.724823 6.48107
upperneck 1.53446 0.257225 3.71362
head 1.70676 0.266779 0.0805936
lclavicle 1.04395e-14 -1.89661e-14 4.12508e-31
lhumerus -58.5896 -46.9242 115.465
lradius 55.8616 -0 0
lwrist 25.4671 0 0
lhand 37.4486 25.3311 1.10505e-05
lfingers 7.12502 -0 0
lthumb 60.2486 38.8474 -7.73047e-05
rclavicle 1.04395e-14 -1.89661e-14 4.12508e-31
rhumerus 2.07374 -23.2593 0.603213
rradius 27.4656 -0 0
rwrist -9.40013 0 0
rhand -30.5301 -41.8465 -0.00349501
rfingers 7.12502 -0 0
rthumb -3.82937 -71.7917 -0.00335368
1055
root 1.22538 15.1654 32.5926 4.81251 -3.21798 3.23815
lfemur 8.3564 0.298726 5.71111
ltibia 0.910811 -0 0
lfoot -30.8391 -10.7882 0.000519913
ltoes -34.4482 0 0
rfemur -30.715 -15.6981 -6.1578
rtibia 49.7858 -0 0
rfoot -21.893 5.31377 0.000135927
rtoes -41.2452 0 0
lowerback -1.803 -0.0186 -0.272218
upperback -0.470592 0.0130242 -5.9485
thorax 0.530588 0.00561558 -6.00969
lowerneck -7.18094 0.721025 6.47972
upperneck 1.51846 0.253655 3.71633
head 1.70012 0.264393 0.0814938
lclavicle 1.07385e-14 -1.94166e-14 3.98092e-31
lhumerus -58.5798 -46.9183 115.462
lradius 55.8572 -0 0
lwrist 25.4757 0 0
lhand 37.4553 25.3368 3.52322e-06
lfingers 7.12502 -0 0
lthumb 60.2543 38.847 -8.02297e-05
rclavicle 1.07385e-14 -1.94166e-14 3.98092e-31
rhumerus 2.06023 -23.2499 0.613997
rradius 27.4667 -0 0
rwrist -9.38649 0 0
rhand -30.5347 -41.8359 -0.00340204
rfingers 7.12502 -0 0
rthumb -3.83376 -71.781 -0.00326463
1056
root 1.22721 15.1655 32.5964 4.81982 -3.22838 3.23621
lfemur 8.35302 0.312219 5.69844
ltibia 0.948952 -0 0
lfoot -30.867 -10.7887 0.000532676
ltoes -34.4417 0 0
rfemur -30.7035 -15.6813 -6.16774
rtibia 49.7768 -0 0
rfoot -21.8843 5.32593 0.00011988
rtoes -41.2051 0 0
lowerback -1.81734 -0.019188 -0.283802
upperback -0.47108 0.0129374 -5.94601
thorax 0.53811 0.00564065 -6.00043
lowerneck -7.17283 0.717551 6.47776
upperneck 1.50171 0.250678 3.71873
head 1.69313 0.262255 0.0824126
lclavicle 1.10322e-14 -1.9876e-14 3.80646e-31
lhumerus -58.5696 -46.9105 115.459
lradius 55.8519 -0 0
lwrist 25.4842 0 0
lhand 37.462 25.3418 -3.63811e-06
lfingers 7.12502 -0 0
lthumb 60.26 38.8458 -8.22373e-05
rclavicle 1.10322e-14 -1.9876e-14 3.80646e-31
rhumerus 2.04807 -23.242 0.624266
rradius 27.4683 -0 0
rwrist -9.37443 0 0
rhand -30.5402 -41.8278 -0.00328097
rfingers 7.12502 -0 0
rthumb -3.83911 -71.7728 -0.00314862
1057
root 1.22886 15.1657 32.5999 4.82785 -3.24043 3.23513
lfemur 8.34992 0.327441 5.68498
ltibia 0.986938 -0 0
lfoot -30.8948 -10.7902 0.000538551
ltoes -34.4345 0 0
rfemur -30.6939 -15.6639 -6.17798
rtibia 49.7686 -0 0
rfoot -21.8762 5.33802 0.000103639
rtoes -41.1649 0 0
lowerback -1.83171 -0.0201877 -0.294632
upperback -0.471824 0.0122749 -5.94343
thorax 0.545319 0.0053652 -5.99152
lowerneck -7.16404 0.71442 6.47515
upperneck 1.48417 0.248323 3.72078
head 1.68576 0.260379 0.0833495
lclavicle 1.13197e-14 -2.03441e-14 3.60167e-31
lhumerus -58.5589 -46.9007 115.455
lradius 55.8457 -0 0
lwrist 25.4926 0 0
lhand 37.4687 25.346 -1.0249e-05
lfingers 7.12502 -0 0
lthumb 60.2657 38.8439 -8.3182e-05
rclavicle 1.13197e-14 -2.03441e-14 3.60167e-31
rhumerus 2.03732 -23.2358 0.633984
rradius 27.4705 -0 0
rwrist -9.36405 0 0
rhand -30.5468 -41.8223 -0.00313099
rfingers 7.12502 -0 0
rthumb -3.84546 -71.7672 -0.00300484
1058
root 1.23032 15.1658 32.6031 4.83663 -3.25419 3.23493
lfemur 8.34711 0.344443 5.6707
ltibia 1.02471 -0 0
lfoot -30.9223 -10.7926 0.000536574
ltoes -34.4266 0 0
rfemur -30.6865 -15.6459 -6.1885
rtibia 49.7613 -0 0
rfoot -21.8686 5.35001 8.74868e-05
rtoes -41.1246 0 0
lowerback -1.84609 -0.0216144 -0.304663
upperback -0.472832 0.0110135 -5.94077
thorax 0.552192 0.00477724 -5.98298
lowerneck -7.15455 0.711652 6.47188
upperneck 1.46585 0.24662 3.72248
head 1.67803 0.258779 0.0843039
lclavicle 1.16004e-14 -2.08207e-14 3.3667e-31
lhumerus -58.5477 -46.8889 115.45
lradius 55.8385 -0 0
lwrist 25.5008 0 0
lhand 37.4753 25.3494 -1.61159e-05
lfingers 7.12502 -0 0
lthumb 60.2714 38.8413 -8.29141e-05
rclavicle 1.16004e-14 -2.08207e-14 3.3667e-31
rhumerus 2.02806 -23.2313 0.643116
rradius 27.4734 -0 0
rwrist -9.35542 0 0
rhand -30.5544 -41.8195 -0.00295144
rfingers 7.12502 -0 0
rthumb -3.85284 -71.7644 -0.00283268
1059
root 1.23158 15.1659 32.6058 4.84615 -3.2697 3.23566
lfemur 8.34461 0.363276 5.6556
ltibia 1.06221 -0 0
lfoot -30.9496 -10.7961 0.000525759
ltoes -34.418 0 0
rfemur -30.6813 -15.6274 -6.19932
rtibia 49.755 -0 0
rfoot -21.8617 5.36188 7.17233e-05
rtoes -41.0842 0 0
lowerback -1.86048 -0.0234837 -0.313848
upperback -0.474115 0.00913017 -5.93801
thorax 0.558707 0.00386481 -5.97485
lowerneck -7.14436 0.709265 6.46791
upperneck 1.44673 0.245598 3.72381
head 1.66991 0.257468 0.0852752
lclavicle 1.18737e-14 -2.13055e-14 3.10185e-31
lhumerus -58.5361 -46.875 115.444
lradius 55.8304 -0 0
lwrist 25.5089 0 0
lhand 37.4819 25.352 -2.10364e-05
lfingers 7.12502 -0 0
lthumb 60.277 38.8378 -8.12801e-05
rclavicle 1.18737e-14 -2.13055e-14 3.10185e-31
rhumerus 2.02036 -23.2285 0.651627
rradius 27.4768 -0 0
rwrist -9.34864 0 0
rhand -30.5632 -41.8197 -0.00274184
rfingers 7.12502 -0 0
rthumb -3.86128 -71.7643 -0.00263166
1060
root 1.23261 15.1659 32.6081 4.85646 -3.28702 3.23734
lfemur 8.34243 0.383992 5.63966
ltibia 1.09937 -0 0
lfoot -30.9765 -10.8005 0.000505107
ltoes -34.4086 0 0
rfemur -30.6783 -15.6084 -6.21043
rtibia 49.7497 -0 0
rfoot -21.8553 5.37363 5.66643e-05
rtoes -41.0439 0 0
lowerback -1.87485 -0.0258109 -0.322139
upperback -0.475682 0.00660175 -5.93517
thorax 0.56484 0.00261593 -5.96715
lowerneck -7.13345 0.707277 6.46323
upperneck 1.42681 0.245284 3.72474
head 1.66141 0.25646 0.0862629
lclavicle 1.2139e-14 -2.17981e-14 2.80758e-31
lhumerus -58.524 -46.859 115.437
lradius 55.8212 -0 0
lwrist 25.5167 0 0
lhand 37.4885 25.3537 -2.48008e-05
lfingers 7.12502 -0 0
lthumb 60.2826 38.8336 -7.81237e-05
rclavicle 1.2139e-14 -2.17981e-14 2.80758e-31
rhumerus 2.0143 -23.2276 0.659481
rradius 27.4809 -0 0
rwrist -9.34377 0 0
rhand -30.573 -41.8227 -0.00250191
rfingers 7.12502 -0 0
rthumb -3.87082 -71.7672 -0.0024015
1061
root 1.23342 15.166 32.6099 4.86755 -3.3062 3.24002
lfemur 8.34059 0.406642 5.62285
ltibia 1.13615 -0 0
lfoot -31.0031 -10.8061 0.000473604
ltoes -34.3984 0 0
rfemur -30.6778 -15.5889 -6.22183
rtibia 49.7455 -0 0
rfoot -21.8497 5.38521 4.26394e-05
rtoes -41.0036 0 0
lowerback -1.88918 -0.0286112 -0.329491
upperback -0.477544 0.00340511 -5.93225
thorax 0.570568 0.00101862 -5.9599
lowerneck -7.12179 0.705709 6.45781
upperneck 1.40608 0.24571 3.72527
head 1.65252 0.255768 0.0872663
lclavicle 1.23956e-14 -2.22984e-14 2.48455e-31
lhumerus -58.5113 -46.8407 115.429
lradius 55.811 -0 0
lwrist 25.5244 0 0
lhand 37.4949 25.3545 -2.71924e-05
lfingers 7.12502 -0 0
lthumb 60.2881 38.8285 -7.32863e-05
rclavicle 1.23956e-14 -2.22984e-14 2.48455e-31
rhumerus 2.00996 -23.2287 0.666643
rradius 27.4856 -0 0
rwrist -9.34092 0 0
rhand -30.5841 -41.8289 -0.00223157
rfingers 7.12502 -0 0
rthumb -3.88148 -71.7732 -0.00214214
